<?xml version="1.0" standalone="no"?>
<!DOCTYPE svg PUBLIC "-//W3C//DTD SVG 20010904//EN"
 "http://www.w3.org/TR/2001/REC-SVG-20010904/DTD/svg10.dtd">
<svg version="1.0" xmlns="http://www.w3.org/2000/svg"
 width="80.000000pt" height="80.000000pt" viewBox="0 0 80.000000 80.000000"
 preserveAspectRatio="xMidYMid meet">
<metadata>
Created by potrace 1.11, written by Peter Selinger 2001-2013
</metadata>
<g transform="translate(0.000000,80.000000) scale(0.100000,-0.100000)"
fill="#000000" stroke="none">
<path d="M143 596 l-143 -197 128 -182 c71 -100 134 -191 140 -202 10 -18 11
-18 12 10 0 22 -21 61 -78 140 -43 61 -97 138 -121 172 l-43 62 127 175 c86
119 125 183 123 197 -2 16 -39 -28 -145 -175z"/>
<path d="M515 766 c3 -21 93 -158 207 -314 23 -31 36 -57 31 -65 -4 -6 -39
-56 -78 -109 -38 -53 -90 -125 -115 -159 -44 -61 -69 -122 -46 -113 6 3 32 35
58 72 26 37 75 105 109 152 34 47 75 104 91 127 l30 42 -109 153 c-61 84 -122
172 -138 196 -31 47 -43 53 -40 18z"/>
<path d="M319 683 c-1 -4 -3 -71 -4 -148 -1 -77 -3 -146 -4 -153 -1 -9 -13
-12 -38 -10 -38 3 -38 3 -41 53 -4 56 -14 74 -35 57 -9 -8 -13 -30 -12 -69 2
-45 7 -61 25 -75 33 -26 103 -24 130 4 19 21 20 32 18 183 -3 143 -5 160 -20
163 -10 2 -19 0 -19 -5z"/>
<path d="M433 318 c2 -155 4 -183 17 -183 12 0 16 15 18 68 l3 67 59 0 c85 0
100 17 100 115 0 103 -12 115 -120 115 l-79 0 2 -182z m157 68 c0 -35 -4 -66
-10 -68 -5 -1 -32 -1 -60 0 l-50 4 0 64 0 64 60 0 60 0 0 -64z"/>
</g>
</svg>
